mtllib materials.mtl
v 0.1083334 -0.1249999 -0.22375
v 0.1083333 -0.1249999 0.06624997
v 0.1083333 0.09500015 0.06624997
v 0.1083334 0.09500015 -0.22375
v -0.1116666 -0.1249999 -0.22375
v -0.1116666 0.09500015 -0.22375
v -0.1116667 0.09500015 0.06624997
v -0.1116667 -0.1249999 0.06624997
v 0.1483334 -0.05499983 -0.25375
v 0.1483333 -0.05499983 0.01625001
v 0.1483333 0.09500027 0.01625001
v 0.1483334 0.09500027 -0.25375
v -0.1516666 -0.05499983 -0.25375
v -0.1516666 0.09500027 -0.25375
v -0.1516667 0.09500027 0.01624995
v -0.1516667 -0.05499983 0.01624995
v -0.08166666 0.04500008 0.10625
v -0.08166666 0.04500008 0.02625006
v -0.08166666 0.2550001 0.02625
v -0.08166666 0.2550001 0.10625
v 0.07833333 0.04500008 0.10625
v 0.07833333 0.2550001 0.10625
v 0.07833333 0.2550001 0.02625
v 0.07833333 0.04500008 0.02625006
v -0.08166666 0.1850002 0.07625008
v -0.08166666 0.2250001 0.07625008
v -0.08166667 0.2250001 0.10625
v -0.08166667 0.1850002 0.10625
v -0.04166665 0.1850002 0.07625008
v -0.04166665 0.1850002 0.10625
v -0.04166665 0.2250001 0.10625
v -0.04166665 0.2250001 0.07625008
v 0.03833333 0.1850002 0.07625008
v 0.03833333 0.2250001 0.07625008
v 0.03833332 0.2250001 0.10625
v 0.03833332 0.1850002 0.10625
v 0.07833335 0.1850002 0.07625008
v 0.07833335 0.1850002 0.10625
v 0.07833335 0.2250001 0.10625
v 0.07833335 0.2250001 0.07625008
v -0.08166666 0.1450001 0.14625
v -0.08166666 0.1450001 0.09625006
v -0.08166666 0.1850001 0.09625006
v -0.08166666 0.1850001 0.14625
v 0.07833334 0.1450001 0.14625
v 0.07833334 0.1850001 0.14625
v 0.07833334 0.1850001 0.09625006
v 0.07833334 0.1450001 0.09625006
v -0.08166666 0.1050001 0.1462499
v -0.08166666 0.1050001 0.09625
v -0.08166666 0.1450001 0.09624994
v -0.08166666 0.1450001 0.1462499
v 0.07833334 0.1050001 0.14625
v 0.07833334 0.1450001 0.1462499
v 0.07833334 0.1450001 0.09625
v 0.07833334 0.1050001 0.09625
v -0.04166666 0.0450002 0.12625
v -0.04166666 0.0450002 0.09625006
v -0.04166666 0.1050001 0.09625006
v -0.04166666 0.1050001 0.12625
v 0.03833334 0.0450002 0.12625
v 0.03833334 0.1050001 0.12625
v 0.03833334 0.1050001 0.09625006
v 0.03833334 0.0450002 0.09625006
v -0.04166673 -0.295 -0.1337499
v -0.04166668 -0.08500004 -0.13375
v -0.08166667 -0.08500004 -0.13375
v -0.08166673 -0.295 -0.13375
v -0.04166672 -0.295 -0.09374994
v -0.08166671 -0.295 -0.09374994
v -0.08166667 -0.08500004 -0.09374997
v -0.04166668 -0.08500004 -0.09374994
v 0.08833329 -0.295 -0.1337499
v 0.08833333 -0.08500004 -0.13375
v 0.04833333 -0.08500004 -0.13375
v 0.04833328 -0.295 -0.13375
v 0.08833329 -0.295 -0.09374994
v 0.04833329 -0.295 -0.09374994
v 0.04833332 -0.08500004 -0.09374997
v 0.08833332 -0.08500004 -0.09374994
v -0.1116666 -0.2949998 -0.05375001
v -0.1116666 -0.2949998 -0.12375
v -0.1116666 -0.2549999 -0.12375
v -0.1116666 -0.2549999 -0.05375001
v -0.01166665 -0.2949998 -0.05374998
v -0.01166665 -0.2549999 -0.05374998
v -0.01166665 -0.2549999 -0.12375
v -0.01166664 -0.2949998 -0.12375
v 0.01833333 -0.2949998 -0.05375001
v 0.01833333 -0.2949998 -0.12375
v 0.01833333 -0.2549999 -0.12375
v 0.01833333 -0.2549999 -0.05375001
v 0.1183333 -0.2949998 -0.05374998
v 0.1183333 -0.2549999 -0.05374998
v 0.1183333 -0.2549999 -0.12375
v 0.1183333 -0.2949998 -0.12375
vn 1 -1.748456E-07 1.748456E-07
vn -1 1.748456E-07 -1.748456E-07
vn -1.748456E-07 -1 -3.057097E-14
vn 1.748456E-07 1 3.057097E-14
vn 1.748456E-07 0 -1
vn -1.748456E-07 0 1
vn 1 0 1.748456E-07
vn -1 0 -1.748456E-07
vn 0 -1 0
vn 0 1 0
vn 1.748456E-07 0 -1
vn -1.748456E-07 0 1
vn -1 0 -8.742278E-08
vn 1 0 8.742278E-08
vn -1.528548E-14 -1 1.748456E-07
vn 1.528548E-14 1 -1.748456E-07
vn -8.742278E-08 1.748456E-07 1
vn 8.742278E-08 -1.748456E-07 -1
vn -1 0 -2.622683E-07
vn 1 0 2.622683E-07
vn 2.622683E-07 1.192093E-07 -1
vn -2.622683E-07 -1.192093E-07 1
vn 0 -1 1.192093E-07
vn 0 1 -1.192093E-07
vn -1 0 -8.742277E-08
vn 1 0 8.742277E-08
vn 8.742278E-08 1.192093E-07 -1
vn -8.742278E-08 -1.192093E-07 1
vn 0 -1 1.192093E-07
vn 0 1 -1.192093E-07
vn -1 0 -8.742278E-08
vn 1 0 8.742278E-08
vn -1.528548E-14 -1 1.748456E-07
vn 1.528548E-14 1 -1.748456E-07
vn -8.742278E-08 1.748456E-07 1
vn 8.742278E-08 -1.748456E-07 -1
vn -1 0 -8.742278E-08
vn 1 0 8.742278E-08
vn -1.528548E-14 -1 1.748456E-07
vn 1.528548E-14 1 -1.748456E-07
vn -8.742278E-08 1.748456E-07 1
vn 8.742278E-08 -1.748456E-07 -1
vn -1 0 -8.742278E-08
vn 1 0 8.742278E-08
vn -1.528548E-14 -1 1.748456E-07
vn 1.528548E-14 1 -1.748456E-07
vn -8.742278E-08 1.748456E-07 1
vn 8.742278E-08 -1.748456E-07 -1
vn 1.192093E-07 0 -1
vn -1.192093E-07 0 1
vn 1 5.960464E-08 1.788139E-07
vn -1 -5.960464E-08 -1.788139E-07
vn 0 -1 5.960464E-08
vn 0 1 -5.960464E-08
vn 1.192093E-07 0 -1
vn -1.192093E-07 0 1
vn 1 5.960464E-08 1.788139E-07
vn -1 -5.960464E-08 -1.788139E-07
vn 0 -1 5.960464E-08
vn 0 1 -5.960464E-08
vn -1 -1.748456E-07 -8.742278E-08
vn 1 1.748456E-07 8.742278E-08
vn 1.748456E-07 -1 1.528548E-14
vn -1.748456E-07 1 -1.528548E-14
vn -8.742278E-08 0 1
vn 8.742278E-08 0 -1
vn -1 -1.748456E-07 -8.742278E-08
vn 1 1.748456E-07 8.742278E-08
vn 1.748456E-07 -1 1.528548E-14
vn -1.748456E-07 1 -1.528548E-14
vn -8.742278E-08 0 1
vn 8.742278E-08 0 -1
vt 0.1047391 0.09846174
vt 0.1283374 0.08160584
vt 0.1411246 0.09950797
vt 0.1175264 0.1163639
vt -0.1047391 0.09846173
vt -0.1175264 0.1163639
vt -0.1411246 0.09950797
vt -0.1283374 0.08160583
vt 0.03006846 0.0009417203
vt 0.02266906 -0.0197766
vt 0.04997957 -0.02953036
vt 0.05737897 -0.00881204
vt -0.03006846 0.0009417202
vt -0.05737897 -0.00881204
vt -0.04997957 -0.02953036
vt -0.02266906 -0.0197766
vt -0.1211949 0.07289582
vt -0.1408723 0.08273453
vt -0.150711 0.06305713
vt -0.1310336 0.05321842
vt 0.1211949 0.07289582
vt 0.1310336 0.05321842
vt 0.150711 0.06305713
vt 0.1408723 0.08273453
vt 0.1063666 0.1059016
vt 0.1283374 0.09020814
vt 0.137056 0.1024142
vt 0.1150852 0.1181076
vt -0.1063666 0.1059016
vt -0.1150852 0.1181076
vt -0.137056 0.1024142
vt -0.1283374 0.09020814
vt 0.0285886 0.005717722
vt 0.0184985 -0.02253453
vt 0.04392553 -0.03161562
vt 0.05401563 -0.003363365
vt -0.0285886 0.005717722
vt -0.05401563 -0.003363365
vt -0.04392553 -0.03161562
vt -0.0184985 -0.02253453
vt -0.125667 0.07960403
vt -0.1390834 0.08631224
vt -0.1524998 0.05947943
vt -0.1390834 0.05277122
vt 0.125667 0.07960403
vt 0.1390834 0.05277122
vt 0.1524998 0.05947942
vt 0.1390834 0.08631224
vt -0.1414734 0.09311433
vt -0.1349635 0.09776424
vt -0.1471695 0.1148526
vt -0.1536794 0.1102027
vt 0.1414734 0.09311433
vt 0.1536794 0.1102027
vt 0.1471695 0.1148527
vt 0.1349635 0.09776424
vt 0.05475559 -0.02805046
vt 0.06013697 -0.01298259
vt 0.05260304 -0.0102919
vt 0.04722166 -0.02535977
vt -0.05475559 -0.02805046
vt -0.04722166 -0.02535977
vt -0.05260304 -0.0102919
vt -0.06013697 -0.01298259
vt 0.1448972 0.06350434
vt 0.1636802 0.07289582
vt 0.1565247 0.08720665
vt 0.1377418 0.07781517
vt -0.1448972 0.06350434
vt -0.1377418 0.07781517
vt -0.1565247 0.08720665
vt -0.1636802 0.07289582
vt -0.1471695 0.1062503
vt -0.1494945 0.1095052
vt -0.1519357 0.1077615
vt -0.1496107 0.1045066
vt 0.1471695 0.1062503
vt 0.1496107 0.1045066
vt 0.1519357 0.1077615
vt 0.1494945 0.1095052
vt -0.1574192 0.06976534
vt -0.1556303 0.07334305
vt -0.159208 0.07513191
vt -0.1609969 0.0715542
vt 0.1574192 0.06976534
vt 0.1609969 0.0715542
vt 0.159208 0.07513191
vt 0.1556303 0.07334305
vt 0.05193037 -0.02704145
vt 0.05475559 -0.02805046
vt 0.05610093 -0.02428349
vt 0.05327571 -0.02327448
vt -0.05193037 -0.02704145
vt -0.05327571 -0.02327448
vt -0.05610093 -0.02428349
vt -0.05475559 -0.02805046
vt -0.1471695 0.1062503
vt -0.1494945 0.1095053
vt -0.1519357 0.1077615
vt -0.1496107 0.1045066
vt 0.1471695 0.1062503
vt 0.1496107 0.1045066
vt 0.1519357 0.1077615
vt 0.1494945 0.1095053
vt -0.1520526 0.08049846
vt -0.1502638 0.08407617
vt -0.1538415 0.08586501
vt -0.1556303 0.0822873
vt 0.1520526 0.08049846
vt 0.1556303 0.0822873
vt 0.1538415 0.08586502
vt 0.1502638 0.08407617
vt 0.0559664 -0.01574055
vt 0.05879163 -0.01674956
vt 0.06013697 -0.01298259
vt 0.05731175 -0.01197358
vt -0.0559664 -0.01574055
vt -0.05731175 -0.01197358
vt -0.06013697 -0.01298259
vt -0.05879163 -0.01674956
vt -0.1505407 0.09892672
vt -0.146472 0.1018329
vt -0.148797 0.1050878
vt -0.1528656 0.1021817
vt 0.1505407 0.09892672
vt 0.1528656 0.1021817
vt 0.148797 0.1050878
vt 0.146472 0.1018329
vt 0.05852256 -0.02939581
vt 0.06390394 -0.01432794
vt 0.05919524 -0.01264626
vt 0.05381386 -0.02771413
vt -0.05852256 -0.02939581
vt -0.05381386 -0.02771413
vt -0.05919524 -0.01264626
vt -0.06390394 -0.01432794
vt 0.1538415 0.06797647
vt 0.1574192 0.06976533
vt 0.1502638 0.08407616
vt 0.146686 0.0822873
vt -0.1538415 0.06797647
vt -0.146686 0.0822873
vt -0.1502638 0.08407616
vt -0.1574192 0.06976533
vt -0.1482157 0.09567179
vt -0.1441471 0.09857798
vt -0.146472 0.1018329
vt -0.1505407 0.09892672
vt 0.1482157 0.09567179
vt 0.1505407 0.09892672
vt 0.146472 0.1018329
vt 0.1441471 0.09857798
vt 0.05852255 -0.0293958
vt 0.06390394 -0.01432794
vt 0.05919523 -0.01264625
vt 0.05381385 -0.02771412
vt -0.05852256 -0.0293958
vt -0.05381384 -0.02771412
vt -0.05919523 -0.01264625
vt -0.06390394 -0.01432793
vt 0.1502638 0.06618762
vt 0.1538415 0.06797647
vt 0.146686 0.0822873
vt 0.1431083 0.08049846
vt -0.1502638 0.06618762
vt -0.1431083 0.08049846
vt -0.146686 0.0822873
vt -0.1538415 0.06797647
vt -0.1431009 0.09195187
vt -0.1406597 0.09369558
vt -0.1441471 0.09857798
vt -0.1465883 0.09683426
vt 0.1431009 0.09195187
vt 0.1465883 0.09683426
vt 0.1441471 0.09857798
vt 0.1406597 0.09369558
vt 0.05798442 -0.02495617
vt 0.06067511 -0.01742223
vt 0.05784989 -0.01641322
vt 0.0551592 -0.02394716
vt -0.05798442 -0.02495617
vt -0.0551592 -0.02394716
vt -0.05784989 -0.01641322
vt -0.06067511 -0.01742223
vt 0.1431083 0.06708205
vt 0.1484749 0.06976533
vt 0.1448972 0.07692075
vt 0.1395306 0.07423747
vt -0.1431083 0.06708205
vt -0.1395306 0.07423747
vt -0.1448972 0.07692075
vt -0.1484749 0.06976533
vt -0.1126978 0.05187677
vt -0.1314808 0.06126826
vt -0.1332696 0.05769055
vt -0.1144867 0.04829907
vt 0.1126978 0.05187677
vt 0.1144867 0.04829907
vt 0.1332696 0.05769055
vt 0.1314808 0.06126826
vt 0.1021817 0.0793971
vt 0.1054366 0.07707214
vt 0.1176426 0.09416053
vt 0.1143877 0.09648549
vt -0.1021817 0.0793971
vt -0.1143877 0.09648549
vt -0.1176426 0.09416053
vt -0.1054366 0.07707214
vt 0.03349911 -0.01621142
vt 0.03215377 -0.01997839
vt 0.03592074 -0.02132373
vt 0.03726608 -0.01755677
vt -0.03349911 -0.01621142
vt -0.03726608 -0.01755676
vt -0.03592074 -0.02132373
vt -0.03215377 -0.01997839
vt -0.106884 0.06350432
vt -0.125667 0.07289581
vt -0.1274559 0.0693181
vt -0.1086729 0.05992662
vt 0.106884 0.06350432
vt 0.1086729 0.05992662
vt 0.1274559 0.0693181
vt 0.125667 0.07289581
vt 0.1021817 0.0793971
vt 0.1054366 0.07707214
vt 0.1176426 0.09416053
vt 0.1143877 0.09648549
vt -0.1021817 0.0793971
vt -0.1143877 0.09648549
vt -0.1176426 0.09416053
vt -0.1054366 0.07707214
vt 0.03787149 -0.003968777
vt 0.03652614 -0.007735745
vt 0.04029311 -0.00908109
vt 0.04163846 -0.005314122
vt -0.03787149 -0.003968772
vt -0.04163846 -0.00531412
vt -0.04029311 -0.009081086
vt -0.03652614 -0.00773574
vt -0.1086916 0.07474721
vt -0.1029954 0.07881588
vt -0.1053204 0.08207081
vt -0.1110165 0.07800214
vt 0.1086916 0.0747472
vt 0.1110165 0.07800214
vt 0.1053204 0.08207081
vt 0.1029954 0.07881588
vt 0.03867869 -0.02549428
vt 0.04204206 -0.01607686
vt 0.03544986 -0.0137225
vt 0.0320865 -0.02313992
vt -0.03867869 -0.02549428
vt -0.0320865 -0.02313992
vt -0.03544986 -0.0137225
vt -0.04204206 -0.01607686
vt 0.1158283 0.0456158
vt 0.119406 0.04740465
vt 0.1149339 0.05634892
vt 0.1113562 0.05456007
vt -0.1158283 0.0456158
vt -0.1113562 0.05456007
vt -0.1149339 0.05634892
vt -0.119406 0.04740465
vt -0.1086916 0.0747472
vt -0.1029954 0.07881588
vt -0.1053204 0.08207081
vt -0.1110165 0.07800214
vt 0.1086916 0.0747472
vt 0.1110165 0.07800214
vt 0.1053204 0.08207081
vt 0.1029954 0.07881588
vt 0.04305106 -0.01325163
vt 0.04641443 -0.003834215
vt 0.03982224 -0.001479859
vt 0.03645887 -0.01089728
vt -0.04305106 -0.01325163
vt -0.03645887 -0.01089728
vt -0.03982224 -0.001479859
vt -0.04641443 -0.003834215
vt 0.1100145 0.05724335
vt 0.1135923 0.0590322
vt 0.1091201 0.06797647
vt 0.1055424 0.06618762
vt -0.1100145 0.05724335
vt -0.1055424 0.06618762
vt -0.1091201 0.06797647
vt -0.1135923 0.0590322
o group141300265
g mesh141300265
usemtl mat21
f 4/4/1 3/3/1 2/2/1 1/1/1
f 8/8/2 7/7/2 6/6/2 5/5/2
f 2/12/3 8/11/3 5/10/3 1/9/3
f 6/16/4 7/15/4 3/14/4 4/13/4
f 5/20/5 6/19/5 4/18/5 1/17/5
f 3/24/6 7/23/6 8/22/6 2/21/6
o group504529678
g mesh504529678
usemtl mat21
f 12/28/7 11/27/7 10/26/7 9/25/7
f 16/32/8 15/31/8 14/30/8 13/29/8
f 10/36/9 16/35/9 13/34/9 9/33/9
f 14/40/10 15/39/10 11/38/10 12/37/10
f 13/44/11 14/43/11 12/42/11 9/41/11
f 11/48/12 15/47/12 16/46/12 10/45/12
o group286481313
g mesh286481313
usemtl mat21
f 20/52/13 19/51/13 18/50/13 17/49/13
f 24/56/14 23/55/14 22/54/14 21/53/14
f 18/60/15 24/59/15 21/58/15 17/57/15
f 22/64/16 23/63/16 19/62/16 20/61/16
f 21/68/17 22/67/17 20/66/17 17/65/17
f 19/72/18 23/71/18 24/70/18 18/69/18
o group634398384
g mesh634398384
usemtl mat23
f 28/76/19 27/75/19 26/74/19 25/73/19
f 32/80/20 31/79/20 30/78/20 29/77/20
f 26/84/21 32/83/21 29/82/21 25/81/21
f 30/88/22 31/87/22 27/86/22 28/85/22
f 29/92/23 30/91/23 28/90/23 25/89/23
f 27/96/24 31/95/24 32/94/24 26/93/24
o group1986552616
g mesh1986552616
usemtl mat23
f 36/100/25 35/99/25 34/98/25 33/97/25
f 40/104/26 39/103/26 38/102/26 37/101/26
f 34/108/27 40/107/27 37/106/27 33/105/27
f 38/112/28 39/111/28 35/110/28 36/109/28
f 37/116/29 38/115/29 36/114/29 33/113/29
f 35/120/30 39/119/30 40/118/30 34/117/30
o group597264213
g mesh597264213
usemtl mat13
f 44/124/31 43/123/31 42/122/31 41/121/31
f 48/128/32 47/127/32 46/126/32 45/125/32
f 42/132/33 48/131/33 45/130/33 41/129/33
f 46/136/34 47/135/34 43/134/34 44/133/34
f 45/140/35 46/139/35 44/138/35 41/137/35
f 43/144/36 47/143/36 48/142/36 42/141/36
o group806878011
g mesh806878011
usemtl mat19
f 52/148/37 51/147/37 50/146/37 49/145/37
f 56/152/38 55/151/38 54/150/38 53/149/38
f 50/156/39 56/155/39 53/154/39 49/153/39
f 54/160/40 55/159/40 51/158/40 52/157/40
f 53/164/41 54/163/41 52/162/41 49/161/41
f 51/168/42 55/167/42 56/166/42 50/165/42
o group1841432480
g mesh1841432480
usemtl mat8
f 60/172/43 59/171/43 58/170/43 57/169/43
f 64/176/44 63/175/44 62/174/44 61/173/44
f 58/180/45 64/179/45 61/178/45 57/177/45
f 62/184/46 63/183/46 59/182/46 60/181/46
f 61/188/47 62/187/47 60/186/47 57/185/47
f 59/192/48 63/191/48 64/190/48 58/189/48
o group1107586350
g mesh1107586350
usemtl mat12
f 68/196/49 67/195/49 66/194/49 65/193/49
f 72/200/50 71/199/50 70/198/50 69/197/50
f 66/204/51 72/203/51 69/202/51 65/201/51
f 70/208/52 71/207/52 67/206/52 68/205/52
f 69/212/53 70/211/53 68/210/53 65/209/53
f 67/216/54 71/215/54 72/214/54 66/213/54
o group62301181
g mesh62301181
usemtl mat12
f 76/220/55 75/219/55 74/218/55 73/217/55
f 80/224/56 79/223/56 78/222/56 77/221/56
f 74/228/57 80/227/57 77/226/57 73/225/57
f 78/232/58 79/231/58 75/230/58 76/229/58
f 77/236/59 78/235/59 76/234/59 73/233/59
f 75/240/60 79/239/60 80/238/60 74/237/60
o group661522218
g mesh661522218
usemtl mat12
f 84/244/61 83/243/61 82/242/61 81/241/61
f 88/248/62 87/247/62 86/246/62 85/245/62
f 82/252/63 88/251/63 85/250/63 81/249/63
f 86/256/64 87/255/64 83/254/64 84/253/64
f 85/260/65 86/259/65 84/258/65 81/257/65
f 83/264/66 87/263/66 88/262/66 82/261/66
o group1185750548
g mesh1185750548
usemtl mat12
f 92/268/67 91/267/67 90/266/67 89/265/67
f 96/272/68 95/271/68 94/270/68 93/269/68
f 90/276/69 96/275/69 93/274/69 89/273/69
f 94/280/70 95/279/70 91/278/70 92/277/70
f 93/284/71 94/283/71 92/282/71 89/281/71
f 91/288/72 95/287/72 96/286/72 90/285/72
